<svg xmlns="http://www.w3.org/2000/svg"  viewBox="0 0 24 24" width="24px" height="24px"><path d="M 5 3 C 3.9069372 3 3 3.9069372 3 5 L 3 19 C 3 20.093063 3.9069372 21 5 21 L 19 21 C 20.093063 21 21 20.093063 21 19 L 21 5 C 21 3.9069372 20.093063 3 19 3 L 5 3 z M 5 5 L 19 5 L 19 19 L 10 19 L 10 15 L 13 15 C 15.337 15 17.212469 12.984609 16.980469 10.599609 C 16.777469 8.5216094 14.910266 7 12.822266 7 L 10.5 7 C 9.119 7 8 8.119 8 9.5 L 8 19 L 5 19 L 5 5 z M 10 9 L 13 9 C 14.103 9 15 9.897 15 11 C 15 12.103 14.103 13 13 13 L 10 13 L 10 9 z"/></svg>